HIERARCHY
ROOT Hips
{
 OFFSET 0.000000 0.000000 0.000000
 CHANNELS 6 Xposition Yposition Zposition Yrotation Xrotation Zrotation
 JOINT Chest
 {
  OFFSET 0.000000 9.585900 0.002600
  CHANNELS 3 Yrotation Xrotation Zrotation
  JOINT Chest2
  {
   OFFSET 0.000000 9.601200 -0.005300
   CHANNELS 3 Yrotation Xrotation Zrotation
   JOINT Chest3
   {
    OFFSET 0.000000 9.561800 0.000000
    CHANNELS 3 Yrotation Xrotation Zrotation
    JOINT Chest4
    {
     OFFSET 0.000000 9.552100 0.000000
     CHANNELS 3 Yrotation Xrotation Zrotation
     JOINT Neck
     {
      OFFSET 0.000000 14.453000 0.000000
      CHANNELS 3 Yrotation Xrotation Zrotation
      JOINT Head
      {
       OFFSET 0.000000 8.936500 -0.011300
       CHANNELS 3 Yrotation Xrotation Zrotation
       End Site
       {
        OFFSET 0.000000 17.073600 -0.006000
       }
      }
     }
     JOINT RightCollar
     {
      OFFSET -2.921100 9.558500 0.000000
      CHANNELS 3 Yrotation Xrotation Zrotation
      JOINT RightShoulder
      {
       OFFSET -13.519700 0.000000 0.000000
       CHANNELS 3 Yrotation Xrotation Zrotation
       JOINT RightElbow
       {
        OFFSET 0.000000 -29.696600 0.000000
        CHANNELS 3 Yrotation Xrotation Zrotation
        JOINT RightWrist
        {
         OFFSET 0.000000 -24.004700 0.000000
         CHANNELS 3 Yrotation Xrotation Zrotation
         End Site
         {
          OFFSET 0.000000 -17.728500 0.000000
         }
        }
       }
      }
     }
     JOINT LeftCollar
     {
      OFFSET 2.921100 9.558500 0.000000
      CHANNELS 3 Yrotation Xrotation Zrotation
      JOINT LeftShoulder
      {
       OFFSET 13.519700 0.000000 0.000000
       CHANNELS 3 Yrotation Xrotation Zrotation
       JOINT LeftElbow
       {
        OFFSET 0.000000 -29.696600 0.000000
        CHANNELS 3 Yrotation Xrotation Zrotation
        JOINT LeftWrist
        {
         OFFSET 0.000000 -24.004700 0.000000
         CHANNELS 3 Yrotation Xrotation Zrotation
         End Site
         {
          OFFSET 0.000000 -17.728500 0.000000
         }
        }
       }
      }
     }
    }
   }
  }
 }
 JOINT RightHip
 {
  OFFSET -7.771700 -0.012900 -0.001300
  CHANNELS 3 Yrotation Xrotation Zrotation
  JOINT RightKnee
  {
   OFFSET 0.000000 -40.869800 0.001200
   CHANNELS 3 Yrotation Xrotation Zrotation
   JOINT RightAnkle
   {
    OFFSET 0.000000 -39.717900 0.002100
    CHANNELS 3 Yrotation Xrotation Zrotation
    JOINT RightToe
    {
     OFFSET 0.000000 -4.965400 11.033500
     CHANNELS 3 Yrotation Xrotation Zrotation
     End Site
     {
      OFFSET 0.000000 -1.423100 5.872300
     }
    }
   }
  }
 }
 JOINT LeftHip
 {
  OFFSET 7.771700 -0.012900 -0.001300
  CHANNELS 3 Yrotation Xrotation Zrotation
  JOINT LeftKnee
  {
   OFFSET 0.000000 -40.869800 0.001200
   CHANNELS 3 Yrotation Xrotation Zrotation
   JOINT LeftAnkle
   {
    OFFSET 0.000000 -39.717900 0.002100
    CHANNELS 3 Yrotation Xrotation Zrotation
    JOINT LeftToe
    {
     OFFSET 0.000000 -4.965400 11.033500
     CHANNELS 3 Yrotation Xrotation Zrotation
     End Site
     {
      OFFSET 0.000000 -1.423100 5.872300
     }
    }
   }
  }
 }
}
MOTION
Frames: 16
Frame Time: 0.008333
0.000000 85.388000 0.000000 0.000000 -5.767877 0.000000 0.000000 11.653817 0.000000 0.000000 -5.885947 0.000000 0.000000 -0.000000 0.000000 0.000000 -0.000000 0.000000 0.000000 12.528835 0.000000 0.000000 0.711642 0.000000 0.000000 -0.000000 0.000000 0.000000 0.000000 -90.000000 0.000000 -2.309062 0.000000 0.000000 2.309062 0.000000 0.000000 -0.000000 0.000000 0.000000 -0.000000 90.000000 0.000000 -2.309062 0.000000 0.000000 2.309062 0.000000 0.000000 8.520406 0.000000 0.000000 1.905762 0.000000 -0.000000 -4.658285 0.000000 0.000000 -0.000000 0.000000 0.000000 8.520406 0.000000 0.000000 1.905762 0.000000 -0.000000 -4.658285 0.000000 0.000000 -0.000000 0.000000
-36.907861 57.957510 12.615494 177.516977 -51.223270 -3.213912 3.130287 21.620407 3.451541 1.590851 12.385925 1.780729 2.062900 15.473790 2.295010 1.583815 12.376124 1.775692 -0.707749 16.819943 0.154502 -1.376568 -4.573349 0.526501 1.141845 5.248870 0.801690 -3.460913 -13.417547 -9.436912 -48.580995 -32.423728 113.992085 -7.752810 -0.625801 -21.210418 -9.513298 1.705686 -1.192528 3.080040 -10.235065 12.297293 49.044017 -37.389130 -111.514326 12.089882 -1.088362 6.278861 2.695097 -20.330297 -3.213725 -33.360765 72.817006 -37.124149 6.849767 -13.205672 11.499131 -0.001690 0.011733 -0.001568 -6.398875 -17.746453 5.697498 87.248509 82.541151 86.957629 1.190668 -22.062474 -17.993203 -0.000192 0.003552 -0.004588
-36.909327 57.959059 12.619809 177.518400 -51.251401 -3.220088 3.136087 21.647796 3.460203 1.597209 12.398351 1.785393 2.075699 15.501625 2.303191 1.598001 12.401970 1.786787 -0.769899 16.771805 0.083977 -1.454776 -4.644287 0.421812 1.123293 5.271483 0.828856 -3.641381 -13.455497 -9.455685 -48.461284 -32.387730 114.033340 -7.650094 -0.321277 -20.740775 -9.556852 1.712220 -1.230128 3.201096 -10.194467 12.316770 48.931207 -37.220787 -111.559035 12.021992 -1.044891 5.965338 2.692739 -20.299535 -3.207965 -33.350605 72.812400 -37.113516 6.859475 -13.207406 11.494091 -0.006880 0.014363 0.001224 -6.406162 -17.721402 5.702284 87.252135 82.539320 86.954341 1.187152 -22.054887 -17.994158 -0.000441 0.000601 -0.002133
-36.911138 57.960208 12.625880 177.516635 -51.274872 -3.225053 3.143857 21.672299 3.468477 1.598257 12.401670 1.787441 2.096447 15.549555 2.308712 1.591085 12.380588 1.790177 -0.795299 16.746801 0.052040 -1.528047 -4.755409 0.298347 1.117508 5.344660 0.851098 -3.795859 -13.489163 -9.453080 -48.462894 -32.364027 114.081965 -7.433395 0.089317 -20.076622 -9.570970 1.758064 -1.244166 3.332990 -10.135866 12.296288 48.926966 -37.183389 -111.659518 11.943341 -0.951533 5.526097 2.691192 -20.273988 -3.200728 -33.329444 72.802640 -37.091885 6.863711 -13.200195 11.492969 0.000170 0.015046 0.001345 -6.419680 -17.701230 5.709065 87.181763 82.533116 86.868588 1.185390 -22.037065 -17.994322 -0.004861 0.000857 0.001042
-36.912909 57.961462 12.633330 177.519831 -51.294210 -3.237077 3.157160 21.704002 3.482249 1.620806 12.451904 1.791158 2.081205 15.514359 2.312068 1.612376 12.451216 1.788869 -0.831277 16.650986 0.031820 -1.586804 -4.913526 0.184726 1.087540 5.364947 0.863804 -3.930784 -13.520693 -9.425766 -48.571923 -32.448168 114.177542 -7.169014 0.565262 -19.276738 -9.590622 1.754142 -1.225964 3.452419 -10.077465 12.246876 49.055148 -37.278836 -111.813072 11.843583 -0.794059 4.997005 2.687860 -20.245587 -3.187503 -33.286310 72.780048 -37.047791 6.864318 -13.189072 11.495480 -0.008341 0.019161 -0.000043 -6.439587 -17.684199 5.722249 87.203531 82.531747 86.873184 1.186810 -22.032884 -17.996041 -0.005076 0.001629 0.003572
-36.917767 57.962830 12.641718 177.543590 -51.307120 -3.249075 3.176665 21.771711 3.482275 1.616035 12.455790 1.792018 2.090380 15.542968 2.312631 1.619487 12.474137 1.789012 -0.880520 16.528477 -0.058195 -1.618399 -5.105095 0.157005 1.052885 5.383150 0.867181 -4.058902 -13.549484 -9.377161 -48.731040 -32.625053 114.304659 -6.829882 1.091330 -18.366550 -9.589700 1.754375 -1.184472 3.550745 -10.027957 12.170859 49.288629 -37.480795 -112.014528 11.703126 -0.576306 4.409310 2.677902 -20.224276 -3.192912 -33.266318 72.770131 -37.026389 6.861155 -13.189854 11.498739 -0.018700 0.023093 -0.002092 -6.469842 -17.675277 5.719476 87.164730 82.529230 86.808979 1.184466 -22.020138 -17.988586 -0.006717 0.002106 0.003659
-36.922471 57.963528 12.651976 177.556193 -51.305618 -3.255384 3.182910 21.809934 3.475113 1.618372 12.457526 1.793074 2.107114 15.602726 2.306053 1.622885 12.475073 1.790605 -0.906375 16.400462 -0.110821 -1.642957 -5.335093 0.112883 1.020153 5.415962 0.857721 -4.190222 -13.573722 -9.312468 -48.940334 -32.863241 114.451798 -6.418223 1.693877 -17.339874 -9.564246 1.777951 -1.128129 3.642745 -9.995747 12.072103 49.584872 -37.752135 -112.242334 11.505479 -0.315759 3.759101 2.672510 -20.219659 -3.194177 -33.224756 72.754998 -36.987015 6.827715 -13.176081 11.508368 0.007922 0.027963 -0.001176 -6.497831 -17.676693 5.724064 87.015827 82.524501 86.627132 1.179080 -21.998603 -17.973772 -0.006381 0.004919 0.002049
-36.926736 57.965348 12.662537 177.552372 -51.302596 -3.252621 3.197502 21.840802 3.472909 1.629146 12.492196 1.788480 2.104579 15.577393 2.311303 1.635395 12.547412 1.777427 -0.916071 16.252092 -0.137883 -1.652694 -5.610910 0.067876 0.997151 5.366891 0.863181 -4.331291 -13.522099 -9.265591 -49.185316 -33.141734 114.622052 -5.965774 2.372357 -16.206800 -9.527351 1.800749 -1.054470 3.749740 -9.985318 11.958345 49.924521 -38.071373 -112.486492 11.251665 -0.029833 3.040143 2.674847 -20.220213 -3.193516 -33.148478 72.736591 -36.916545 6.830668 -13.156750 11.513745 -0.001303 0.030946 -0.002799 -6.543980 -17.677284 5.728474 86.985610 82.513283 86.548386 1.183985 -21.987241 -17.969959 -0.008599 0.006134 -0.001167
-36.930818 57.968093 12.673307 177.559932 -51.295491 -3.260426 3.197197 21.846034 3.473942 1.651848 12.574682 1.776428 2.114259 15.611165 2.305710 1.638233 12.544929 1.777732 -0.912939 16.084995 -0.154234 -1.642389 -5.921453 0.038363 0.941043 5.412003 0.820009 -4.449106 -13.562800 -9.165447 -49.443695 -33.433136 114.814627 -5.499360 3.096994 -14.990368 -9.481863 1.821724 -0.968960 3.879254 -9.994153 11.839785 50.300349 -38.434032 -112.752560 10.951683 0.283202 2.258071 2.673229 -20.221666 -3.188553 -33.141375 72.725124 -36.906243 6.824437 -13.154423 11.513153 -0.002178 0.033453 -0.000554 -6.562419 -17.683987 5.731311 86.956636 82.509184 86.506281 1.183634 -21.982067 -17.968135 -0.008093 0.007487 -0.001084
-36.936455 57.968699 12.686273 177.584786 -51.261391 -3.273198 3.200207 21.868131 3.465514 1.656642 12.599534 1.769780 2.128106 15.666080 2.295105 1.641975 12.540005 1.778573 -0.910564 15.930382 -0.139470 -1.601990 -6.275081 0.003035 0.872809 5.452444 0.763819 -4.553659 -13.596614 -9.057212 -49.688009 -33.701580 115.029186 -5.032194 3.813724 -13.727531 -9.428275 1.841909 -0.878270 4.024883 -10.016451 11.727158 50.704222 -38.822997 -113.046009 10.603246 0.644731 1.420289 2.670917 -20.246563 -3.193876 -33.119069 72.695952 -36.876375 6.827725 -13.143467 11.512928 0.009890 0.035548 0.002911 -6.591539 -17.719320 5.729122 86.813762 82.511663 86.344953 1.186164 -21.965588 -17.960812 -0.008560 0.012291 0.000096
-36.941321 57.971729 12.697636 177.592427 -51.237179 -3.276726 3.213810 21.902558 3.460011 1.664437 12.620365 1.760827 2.138074 15.692286 2.288500 1.649920 12.561011 1.773032 -0.904918 15.777935 -0.116658 -1.544774 -6.636133 -0.012413 0.811203 5.460114 0.716563 -4.654261 -13.591760 -8.966304 -49.901413 -33.934595 115.266062 -4.594745 4.486784 -12.451512 -9.369324 1.863386 -0.787480 4.184237 -10.045512 11.626683 51.129648 -39.201822 -113.373874 10.207920 1.077681 0.538221 2.679704 -20.265590 -3.190433 -33.075992 72.680769 -36.833066 6.816242 -13.136246 11.517283 0.004661 0.040396 0.006319 -6.621646 -17.744416 5.732325 86.719490 82.496804 86.221477 1.179903 -21.948327 -17.959640 -0.010470 0.013327 0.002785
-36.945633 57.976534 12.707473 177.594607 -51.218885 -3.278683 3.234282 21.942355 3.454786 1.668939 12.636551 1.752077 2.148247 15.714802 2.280257 1.658121 12.579012 1.766160 -0.853953 15.567521 -0.128246 -1.520170 -6.922873 0.044402 0.754014 5.470784 0.668970 -4.744573 -13.575892 -8.884784 -50.059389 -34.135436 115.507390 -4.202412 5.090468 -11.185633 -9.305566 1.886472 -0.698051 4.358189 -10.072745 11.537535 51.561202 -39.544535 -113.735688 9.793753 1.574510 -0.376299 2.691216 -20.280950 -3.186754 -33.016950 72.670314 -36.766597 6.793017 -13.120899 11.515458 0.006801 0.043412 0.011080 -6.643973 -17.764428 5.737666 86.629998 82.487143 86.106557 1.176196 -21.928312 -17.956368 -0.015239 0.012738 0.006932
-36.949752 57.981843 12.716334 177.592611 -51.198512 -3.277654 3.254028 21.979419 3.446305 1.672975 12.646037 1.742298 2.157310 15.732695 2.269856 1.665494 12.593283 1.757583 -0.808635 15.389560 -0.108355 -1.469765 -7.213129 0.094266 0.708190 5.483134 0.622005 -4.827549 -13.542437 -8.815112 -50.139634 -34.275710 115.728101 -3.832713 5.612487 -9.949043 -9.234582 1.910512 -0.610468 4.536102 -10.090170 11.460449 51.978465 -39.848392 -114.130517 9.393691 2.090815 -1.296739 2.718446 -20.301735 -3.181676 -33.011479 72.662955 -36.742750 6.776213 -13.116270 11.513264 0.003956 0.046101 0.013992 -6.664546 -17.785075 5.744036 86.554867 82.480128 86.001186 1.172641 -21.910909 -17.944880 -0.018084 0.009786 0.004868
-36.954256 57.986253 12.724882 177.590256 -51.167217 -3.272719 3.274451 22.025214 3.424582 1.668765 12.599460 1.752847 2.161480 15.740412 2.264092 1.671630 12.638276 1.725667 -0.781669 15.272155 -0.062414 -1.385557 -7.526324 0.138584 0.670663 5.496053 0.577432 -4.896723 -13.490209 -8.757546 -50.151321 -34.327842 115.925438 -3.485975 6.068549 -8.766976 -9.161104 1.934081 -0.528727 4.704417 -10.092671 11.402883 52.366942 -40.120522 -114.553828 9.026788 2.588685 -2.192944 2.730287 -20.331981 -3.181962 -32.960958 72.656690 -36.691288 6.735358 -13.111376 11.515942 0.038598 0.053961 0.022105 -6.683306 -17.816094 5.748757 86.451168 82.471751 85.856170 1.192849 -21.888381 -17.918658 -0.050677 0.013641 -0.010473
-36.957355 57.990533 12.732313 177.584944 -51.133038 -3.271582 3.283806 22.015318 3.419246 1.671998 12.604446 1.747828 2.165464 15.746652 2.257933 1.675512 12.668996 1.692755 -0.751713 15.171342 -0.013755 -1.295825 -7.813943 0.199157 0.639734 5.508351 0.535371 -4.947223 -13.420836 -8.710168 -50.106494 -34.301543 116.103138 -3.184011 6.481742 -7.660742 -9.091798 1.955145 -0.461799 4.856679 -10.081024 11.370458 52.707868 -40.358218 -114.972045 8.686247 3.057919 -3.056836 2.735846 -20.365175 -3.176868 -32.913535 72.651541 -36.643620 6.718416 -13.099492 11.518106 0.034723 0.048381 0.020752 -6.688207 -17.848009 5.756819 86.409226 82.469796 85.805564 1.190650 -21.884251 -17.920750 -0.050106 0.011051 -0.011967
-36.959780 57.993927 12.738830 177.580896 -51.092672 -3.272484 3.300565 22.016618 3.407498 1.688984 12.648236 1.710119 2.172357 15.717182 2.276037 1.674290 12.658839 1.683125 -0.673765 14.999152 0.026475 -1.247006 -7.989292 0.291091 0.624071 5.506752 0.517531 -4.978690 -13.326857 -8.696194 -50.017460 -34.214302 116.260006 -2.932534 6.874475 -6.636543 -9.027986 1.971648 -0.415248 4.988011 -10.057479 11.362581 52.990539 -40.552289 -115.349809 8.345931 3.512690 -3.890175 2.740060 -20.404276 -3.170328 -32.832001 72.645013 -36.562119 6.703945 -13.079296 11.517641 0.014166 0.038976 0.018689 -6.692068 -17.886347 5.770546 86.300094 82.478188 85.684465 1.192369 -21.872895 -17.914916 -0.050413 0.011594 -0.008239
